<svg width="183" height="48" viewBox="0 0 183 48" fill="none" xmlns="http://www.w3.org/2000/svg">
<path d="M8.54207 44.6716C8.54207 45.902 9.29243 46.8528 10.2618 46.8528H12.1168C13.0862 46.8528 13.8365 45.902 13.8365 44.6716C13.8365 43.4459 13.0862 42.4951 12.1168 42.4951H10.2618C9.29243 42.4951 8.54207 43.4459 8.54207 44.6716ZM12.2985 41.4651C13.734 41.4651 14.8386 42.8587 14.8386 44.6716C14.8386 46.4893 13.734 47.8828 12.2985 47.8828H10.0801C8.64461 47.8828 7.54004 46.4893 7.54004 44.6716C7.54004 42.8587 8.64461 41.4651 10.0801 41.4651H12.2985Z" fill="white"/>
<path d="M30.3538 41.4651V42.4951H25.5953V44.1683H30.1674V44.9233H25.5953V46.8528H30.3538V47.8828H24.5933V41.4651H30.3538Z" fill="white"/>
<path d="M34.8897 44.6716C34.8897 45.902 35.6401 46.8528 36.6095 46.8528H38.4644C39.4338 46.8528 40.1842 45.902 40.1842 44.6716C40.1842 43.4459 39.4338 42.4951 38.4644 42.4951H36.6095C35.6401 42.4951 34.8897 43.4459 34.8897 44.6716ZM38.6462 41.4651C40.0817 41.4651 41.1862 42.8587 41.1862 44.6716C41.1862 46.4893 40.0817 47.8828 38.6462 47.8828H36.4277C34.9923 47.8828 33.8877 46.4893 33.8877 44.6716C33.8877 42.8587 34.9923 41.4651 36.4277 41.4651H38.6462Z" fill="white"/>
<path d="M47.9519 41.4651V42.4951H43.1934V44.2848H47.7655V45.0352H43.1934V47.8828H42.1914V41.4651H47.9519Z" fill="white"/>
<path d="M57.2464 41.4651V42.4951H52.4879V44.2848H57.0599V45.0352H52.4879V47.8828H51.4858V41.4651H57.2464Z" fill="white"/>
<path d="M59.4932 41.4651V44.6716C59.4932 45.902 60.2436 46.8528 61.213 46.8528H62.7883C63.7624 46.8528 64.5127 45.902 64.5127 44.6716V41.4651H65.5101V44.6716C65.5101 46.4893 64.4102 47.8828 62.9747 47.8828H61.0312C59.5958 47.8828 58.4912 46.4893 58.4912 44.6716V41.4651H59.4932Z" fill="white"/>
<rect x="66.3774" y="44.5913" width="5.19612" height="5.19612" rx="1.15106" transform="rotate(-49 66.3774 44.5913)" fill="white"/>
<path d="M75.5343 41.4651V44.6716C75.5343 45.902 76.2846 46.8528 77.254 46.8528H78.8293C79.8034 46.8528 80.5537 45.902 80.5537 44.6716V41.4651H81.5511V44.6716C81.5511 46.4893 80.4512 47.8828 79.0157 47.8828H77.0723C75.6368 47.8828 74.5322 46.4893 74.5322 44.6716V41.4651H75.5343Z" fill="white"/>
<path d="M83.8018 44.5178H87.7214C88.1735 44.5178 88.523 44.0751 88.523 43.5065C88.523 42.9379 88.1735 42.4951 87.7214 42.4951H83.8018V44.5178ZM87.9078 41.4651C88.8213 41.4651 89.5204 42.3553 89.5204 43.5065C89.5204 44.5318 88.9611 45.3474 88.1921 45.4966L89.5204 47.8828H88.523L87.2227 45.5478H83.8018V47.8828H82.7998V41.4651H87.9078Z" fill="white"/>
<path d="M96.5257 41.4651V42.4951H91.7672V44.1683H96.3392V44.9233H91.7672V46.8528H96.5257V47.8828H90.7651V41.4651H96.5257Z" fill="white"/>
<path d="M105.814 41.4651V42.4951H101.056V44.1683H105.623V44.9233H101.056V46.8528H105.814V47.8828H100.054V41.4651H105.814Z" fill="white"/>
<path d="M108.14 41.4651L110.339 44.0425L112.535 41.4651H113.714L110.969 44.6716L113.714 47.8828H112.535L110.339 45.3055L108.14 47.8828H106.96L109.706 44.6716L106.96 41.4651H108.14Z" fill="white"/>
<path d="M115.848 44.5178H119.768C120.22 44.5178 120.569 44.0751 120.569 43.5065C120.569 42.9379 120.22 42.4951 119.768 42.4951H115.848V44.5178ZM119.954 41.4651C120.868 41.4651 121.571 42.3553 121.571 43.5065C121.571 44.6577 120.868 45.5478 119.954 45.5478H115.848V47.8828H114.846V41.4651H119.954Z" fill="white"/>
<path d="M128.577 41.4651V42.4951H123.818V44.1683H128.386V44.9233H123.818V46.8528H128.577V47.8828H122.816V41.4651H128.577Z" fill="white"/>
<path d="M130.823 44.5178H134.742C135.194 44.5178 135.544 44.0751 135.544 43.5065C135.544 42.9379 135.194 42.4951 134.742 42.4951H130.823V44.5178ZM134.929 41.4651C135.842 41.4651 136.546 42.3553 136.546 43.5065C136.546 44.5318 135.982 45.3474 135.213 45.4966L136.546 47.8828H135.544L134.244 45.5478H130.823V47.8828H129.821V41.4651H134.929Z" fill="white"/>
<path d="M145.807 41.4651V42.4951H141.048V44.1683H145.616V44.9233H141.048V46.8528H145.807V47.8828H140.046V41.4651H145.807Z" fill="white"/>
<path d="M147.742 41.4651L152.575 46.3401V41.4651H153.577V47.8828H152.882L148.049 43.0078V47.8828H147.047V41.4651H147.742Z" fill="white"/>
<path d="M161.178 41.4651V42.4951H157.314C156.335 42.4951 155.589 43.4459 155.589 44.6716C155.589 45.902 156.335 46.8528 157.314 46.8528H161.178V47.8828H157.127C155.692 47.8828 154.587 46.4893 154.587 44.6716C154.587 42.8587 155.692 41.4651 157.127 41.4651H161.178Z" fill="white"/>
<path d="M168.182 41.4651V42.4951H163.423V44.1683H167.991V44.9233H163.423V46.8528H168.182V47.8828H162.421V41.4651H168.182Z" fill="white"/>
<path d="M175.798 41.4651V42.4951H171.082C170.714 42.4951 170.429 42.8587 170.429 43.3247C170.429 43.7954 170.714 44.159 171.082 44.159H174.521C175.356 44.159 175.994 44.9653 175.994 46.0186C175.994 47.0719 175.356 47.8828 174.521 47.8828H169.488V46.8528H174.335C174.708 46.8528 174.987 46.4893 174.987 46.0186C174.987 45.5525 174.708 45.189 174.335 45.189H170.9C170.07 45.189 169.427 44.3827 169.427 43.3247C169.427 42.2761 170.07 41.4651 170.9 41.4651H175.798Z" fill="white"/>
<path d="M4.39497 6.37092L19.5606 31.9577L34.7309 6.37092H39.1259V36.8374H34.7309V12.3924L20.4135 36.8374H18.7124L4.39497 12.3924V36.8374H0V6.37092H4.39497Z" fill="white"/>
<path d="M70.6492 14.3829V16.6106H64.693V26.1416H62.1296V16.6106H56.1733V14.3829H70.6492Z" fill="white"/>
<path d="M87.6476 14.3829V16.6106H77.3802V19.2718H87.2654V20.8798H77.3802V23.9138H87.6476V26.1416H74.8169V14.3829H87.6476Z" fill="white"/>
<path d="M106.402 14.3829V16.6106H97.6491C95.7103 16.6106 94.2189 18.1999 94.2189 20.2599C94.2189 22.3246 95.7103 23.9138 97.6491 23.9138H106.402V26.1416H97.1784C94.0558 26.1416 91.6509 23.5829 91.6509 20.2599C91.6509 16.9415 94.0558 14.3829 97.1784 14.3829H106.402Z" fill="white"/>
<path d="M113.155 14.3829V18.9642H122.504V14.3829H125.067V26.1416H122.504V20.9357H113.155V26.1416H110.591V14.3829H113.155Z" fill="white"/>
<path d="M144.931 6.37092L171.603 31.4497V6.37092H175.994V36.8374H172.936L146.264 11.7539V36.8374H141.869V6.37092H144.931Z" fill="white"/>
<path d="M133.251 24.8316C133.251 29.1334 129.854 32.4518 125.431 32.4518H98.1847C95.0341 32.4518 92.1772 30.7926 90.6205 28.2991C89.0639 30.7926 86.3747 32.4518 83.2195 32.4518H55.8103C51.3874 32.4518 47.9898 29.1334 47.9898 24.8316V15.9066C48.0131 11.6281 51.4061 8.33305 55.7358 8.33305H125.356C129.835 8.33305 133.223 11.6281 133.251 15.9066V24.8316ZM125.571 6.37558H55.5121C49.2528 6.37558 44.3778 11.2366 44.3452 17.5564V25.596C44.3452 31.9438 49.2342 36.8374 55.5913 36.8374H85.8527C88.8448 36.8374 90.6205 34.4791 90.6205 34.4791C90.6205 34.4791 92.275 36.8374 95.5282 36.8374H125.65C132.007 36.8374 136.891 31.9438 136.891 25.596V17.5704C136.863 11.2459 131.988 6.37558 125.571 6.37558Z" fill="white"/>
<path d="M179.448 1.42113V2.33461H180.179C180.482 2.33461 180.669 2.16217 180.669 1.88253C180.669 1.6029 180.482 1.42113 180.179 1.42113H179.448ZM179.988 2.56299H179.448V3.34131H179.21V1.19742H180.175C180.613 1.19742 180.902 1.46774 180.902 1.88253C180.902 2.25538 180.659 2.51638 180.282 2.55832L180.986 3.34131H180.683L179.988 2.56299Z" fill="white"/>
<path d="M180.053 0.284476C178.935 0.284476 178.021 1.1933 178.021 2.31651C178.021 3.43506 178.935 4.34388 180.053 4.34388C181.172 4.34388 182.085 3.43506 182.085 2.31651C182.085 1.1933 181.172 0.284476 180.053 0.284476ZM180.053 4.62817C178.776 4.62817 177.742 3.58886 177.742 2.31651C177.742 1.0395 178.776 0.00017786 180.053 0.00017786C181.33 0.00017786 182.365 1.0395 182.365 2.31651C182.365 3.58886 181.33 4.62817 180.053 4.62817Z" fill="white"/>
<path d="M1.00203 41.4368V44.0188H5.5275V41.4368H6.52953V47.8545H5.5275V44.9323H1.00203V47.8545H0V41.4368H1.00203Z" fill="white"/>
<path d="M16.7242 41.4374L19.4459 46.4703L22.1713 41.4374H23.164V47.8564H22.1713V43.1596L19.6421 47.8564H19.2533L16.7242 43.1596V47.8564H15.7314V41.4374H16.7242Z" fill="white"/>
</svg>
